REM DIRINDEX 1\2,1\4,1\3\5,1\3\6,1\3\7
REM DIRNAME folder01,folder02,folder03,folder04,folder05,folder06,folder07
TITLE ""
FILE "CD1Track52.mp3" MP3
  TRACK 01 AUDIO
    TITLE "0:"
    INDEX 01 00:00:00
  TRACK 02 AUDIO
    TITLE "4:cjc082_0955"
    INDEX 01 00:00:29
  TRACK 03 AUDIO
    TITLE "0:"
    INDEX 01 00:04:42
  TRACK 04 AUDIO
    TITLE "5:cjc082_0956"
    INDEX 01 00:05:14
  TRACK 05 AUDIO
    TITLE "0:"
    INDEX 01 00:06:49
  TRACK 06 AUDIO
    TITLE "6:cjc082_0957"
    INDEX 01 00:07:25
  TRACK 07 AUDIO
    TITLE "0:"
    INDEX 01 00:09:16
  TRACK 08 AUDIO
    TITLE "5:cjc082_0958"
    INDEX 01 00:09:63
  TRACK 09 AUDIO
    TITLE "0:"
    INDEX 01 00:11:25
  TRACK 10 AUDIO
    TITLE "6:cjc082_0959"
    INDEX 01 00:11:70
  TRACK 11 AUDIO
    TITLE "0:"
    INDEX 01 00:14:17
  TRACK 12 AUDIO
    TITLE "5:cjc082_0960"
    INDEX 01 00:14:64
  TRACK 13 AUDIO
    TITLE "0:"
    INDEX 01 00:16:34
  TRACK 14 AUDIO
    TITLE "6:cjc082_0961"
    INDEX 01 00:17:10
  TRACK 15 AUDIO
    TITLE "0:"
    INDEX 01 00:18:19
  TRACK 16 AUDIO
    TITLE "5:cjc082_0962"
    INDEX 01 00:18:68
  TRACK 17 AUDIO
    TITLE "0:"
    INDEX 01 00:20:22
  TRACK 18 AUDIO
    TITLE "6:cjc082_0963"
    INDEX 01 00:20:69
  TRACK 19 AUDIO
    TITLE "0:"
    INDEX 01 00:24:67
  TRACK 20 AUDIO
    TITLE "5:cjc082_0964"
    INDEX 01 00:25:39
  TRACK 21 AUDIO
    TITLE "0:"
    INDEX 01 00:27:10
  TRACK 22 AUDIO
    TITLE "6:cjc082_0965"
    INDEX 01 00:27:59
  TRACK 23 AUDIO
    TITLE "0:"
    INDEX 01 00:29:03
  TRACK 24 AUDIO
    TITLE "5:cjc082_0966"
    INDEX 01 00:29:52
  TRACK 25 AUDIO
    TITLE "0:"
    INDEX 01 00:30:65
  TRACK 26 AUDIO
    TITLE "6:cjc082_0967"
    INDEX 01 00:31:35
  TRACK 27 AUDIO
    TITLE "0:"
    INDEX 01 00:33:07
  TRACK 28 AUDIO
    TITLE "5:cjc082_0968"
    INDEX 01 00:33:54
  TRACK 29 AUDIO
    TITLE "0:"
    INDEX 01 00:34:73
  TRACK 30 AUDIO
    TITLE "6:cjc082_0969"
    INDEX 01 00:35:45
  TRACK 31 AUDIO
    TITLE "0:"
    INDEX 01 00:36:58
  TRACK 32 AUDIO
    TITLE "5:cjc082_0970"
    INDEX 01 00:37:30
  TRACK 33 AUDIO
    TITLE "0:"
    INDEX 01 00:38:45
  TRACK 34 AUDIO
    TITLE "6:cjc082_0971"
    INDEX 01 00:39:17
  TRACK 35 AUDIO
    TITLE "0:"
    INDEX 01 00:41:14
  TRACK 36 AUDIO
    TITLE "5:cjc082_0972"
    INDEX 01 00:41:59
  TRACK 37 AUDIO
    TITLE "0:"
    INDEX 01 00:43:09
  TRACK 38 AUDIO
    TITLE "6:cjc082_0973"
    INDEX 01 00:43:64
  TRACK 39 AUDIO
    TITLE "0:"
    INDEX 01 00:45:51
  TRACK 40 AUDIO
    TITLE "5:cjc082_0974"
    INDEX 01 00:46:27
  TRACK 41 AUDIO
    TITLE "0:"
    INDEX 01 00:47:52
  TRACK 42 AUDIO
    TITLE "6:cjc082_0975"
    INDEX 01 00:48:34
  TRACK 43 AUDIO
    TITLE "0:"
    INDEX 01 00:49:39
  TRACK 44 AUDIO
    TITLE "5:cjc082_0976"
    INDEX 01 00:50:11
  TRACK 45 AUDIO
    TITLE "0:"
    INDEX 01 00:51:32
  TRACK 46 AUDIO
    TITLE "6:cjc082_0977"
    INDEX 01 00:52:08
  TRACK 47 AUDIO
    TITLE "0:"
    INDEX 01 00:55:16
  TRACK 48 AUDIO
    TITLE "5:cjc082_0978"
    INDEX 01 00:55:65
  TRACK 49 AUDIO
    TITLE "0:"
    INDEX 01 00:57:09
  TRACK 50 AUDIO
    TITLE "6:cjc082_0979"
    INDEX 01 00:57:62
  TRACK 51 AUDIO
    TITLE "0:"
    INDEX 01 00:59:10
  TRACK 52 AUDIO
    TITLE "5:cjc082_0980"
    INDEX 01 00:59:59
  TRACK 53 AUDIO
    TITLE "0:"
    INDEX 01 01:00:68
  TRACK 54 AUDIO
    TITLE "6:cjc082_0981"
    INDEX 01 01:01:42
  TRACK 55 AUDIO
    TITLE "0:"
    INDEX 01 01:02:52
  TRACK 56 AUDIO
    TITLE "5:cjc082_0982"
    INDEX 01 01:03:24
  TRACK 57 AUDIO
    TITLE "0:"
    INDEX 01 01:04:37
  TRACK 58 AUDIO
    TITLE "6:cjc082_0983"
    INDEX 01 01:05:11
  TRACK 59 AUDIO
    TITLE "0:"
    INDEX 01 01:06:34
  TRACK 60 AUDIO
    TITLE "5:cjc082_0984"
    INDEX 01 01:07:10
  TRACK 61 AUDIO
    TITLE "0:"
    INDEX 01 01:08:27
  TRACK 62 AUDIO
    TITLE "6:cjc082_0985"
    INDEX 01 01:08:74
  TRACK 63 AUDIO
    TITLE "0:"
    INDEX 01 01:12:58
  TRACK 64 AUDIO
    TITLE "5:cjc082_0986"
    INDEX 01 01:13:26
  TRACK 65 AUDIO
    TITLE "0:"
    INDEX 01 01:14:37
  TRACK 66 AUDIO
    TITLE "6:cjc082_0987"
    INDEX 01 01:15:15
  TRACK 67 AUDIO
    TITLE "0:"
    INDEX 01 01:16:22
  TRACK 68 AUDIO
    TITLE "5:cjc082_0988"
    INDEX 01 01:16:67
  TRACK 69 AUDIO
    TITLE "0:"
    INDEX 01 01:18:17
  TRACK 70 AUDIO
    TITLE "6:cjc082_0989"
    INDEX 01 01:18:62
  TRACK 71 AUDIO
    TITLE "0:"
    INDEX 01 01:22:48
  TRACK 72 AUDIO
    TITLE "5:cjc082_0990"
    INDEX 01 01:23:18
  TRACK 73 AUDIO
    TITLE "0:"
    INDEX 01 01:24:51
  TRACK 74 AUDIO
    TITLE "6:cjc082_0991"
    INDEX 01 01:25:33
  TRACK 75 AUDIO
    TITLE "0:"
    INDEX 01 01:27:36
  TRACK 76 AUDIO
    TITLE "5:cjc082_0992"
    INDEX 01 01:28:10
  TRACK 77 AUDIO
    TITLE "0:"
    INDEX 01 01:29:11
  TRACK 78 AUDIO
    TITLE "6:cjc082_0993"
    INDEX 01 01:29:66
  TRACK 79 AUDIO
    TITLE "0:"
    INDEX 01 01:32:25
  TRACK 80 AUDIO
    TITLE "7:cjc082_0994"
    INDEX 01 01:33:70
  TRACK 81 AUDIO
    TITLE "0:"
    INDEX 01 01:44:54
